<svg width="188" height="271" viewBox="0 0 188 271" fill="none" xmlns="http://www.w3.org/2000/svg">
<g clip-path="url(#clip0_12_337)">
<path d="M169.116 124.216C168.714 146.262 162.281 166.208 153.347 183.419C141.665 205.913 125.71 223.733 113.366 235.468C112.964 235.849 112.556 236.23 112.169 236.598C111.774 236.965 111.38 237.333 110.992 237.688C110.791 237.868 110.604 238.049 110.41 238.222C109.454 239.098 108.531 239.934 107.635 240.73C107.274 241.044 106.926 241.358 106.578 241.659C106.404 241.813 106.237 241.96 106.063 242.107C105.722 242.402 105.388 242.696 105.054 242.977C104.231 243.685 103.442 244.354 102.693 244.969C101.523 245.939 100.212 246.674 98.8279 247.156C98.1324 247.403 97.4236 247.59 96.7081 247.704C96.0394 247.818 95.3506 247.878 94.6618 247.885C93.5251 247.898 92.3883 247.764 91.2849 247.47C90.9238 247.376 90.5827 247.269 90.2283 247.149C90.0545 247.089 89.8806 247.022 89.7067 246.955C89.1985 246.748 88.6903 246.507 88.2088 246.233C87.5602 245.865 86.9316 245.437 86.3432 244.949C86.0355 244.702 85.728 244.441 85.4137 244.173C84.8519 243.699 84.2568 243.204 83.6483 242.676C83.334 242.402 83.0063 242.121 82.6853 241.84C82.1303 241.358 81.5619 240.857 80.9801 240.335C71.7186 233.702 57.4617 219.701 37.4006 190.233C21.0507 166.221 15.039 140.445 13.8822 117.022C12.177 82.5524 20.9972 53.1582 22.8763 41.878C26.0192 22.9349 6.66016 0 6.66016 0C53.1085 12.3367 58.5718 19.9795 57.0405 59.8782C56.793 66.2572 56.3718 73.4653 55.9104 81.6497C55.7766 83.9566 55.7097 86.1631 55.7097 88.2761V89.1387C55.7967 114.146 64.1889 126.102 72.7952 131.779C72.9022 131.873 73.0158 131.959 73.1228 132.053C77.008 135.243 81.6555 137.529 86.7578 138.613C88.249 138.927 89.7803 139.141 91.3384 139.241C92.0338 139.288 92.736 139.308 93.4381 139.308C111.159 139.308 125.529 124.945 125.529 107.219C125.529 98.4063 121.978 90.4292 116.221 84.6252C109.748 81.3221 102.359 79.4431 94.5147 79.4431C87.948 79.4431 81.709 80.7604 76.0518 83.1274C74.0724 83.9566 72.1599 84.9128 70.3343 85.9893C70.1337 86.1698 69.9331 86.357 69.7392 86.5443L68.8164 86.9588C68.696 87.0391 68.4486 87.1327 68.2212 87.233L68.1878 87.2464C68.0006 87.3199 67.82 87.3935 67.7197 87.467C73.611 80.3325 75.8445 64.9266 75.918 64.3917C75.918 64.3783 75.918 64.3783 75.918 64.3783C75.918 64.3783 75.9247 64.3783 75.9448 64.3783C85.0726 58.24 96.0528 54.656 107.875 54.656C131.24 54.656 151.328 68.6443 160.242 88.6973C160.349 88.8846 160.449 89.0785 160.556 89.259C160.663 89.4596 160.777 89.6602 160.877 89.8675C160.997 90.1015 161.125 90.3356 161.238 90.5696C162.241 92.5087 163.157 94.4946 163.973 96.5206C164.087 96.7948 164.194 97.0623 164.301 97.3431C164.415 97.6105 164.515 97.8847 164.615 98.1522C164.722 98.433 164.822 98.7138 164.923 98.9947C165.103 99.5029 165.291 100.018 165.458 100.526C165.565 100.833 165.665 101.141 165.759 101.455C165.859 101.756 165.959 102.064 166.053 102.371C166.14 102.659 166.227 102.94 166.307 103.227C166.387 103.501 166.461 103.769 166.541 104.05C166.882 105.26 167.19 106.484 167.457 107.721C167.517 107.961 167.564 108.202 167.611 108.443C167.691 108.79 167.758 109.145 167.832 109.499C167.878 109.733 167.925 109.974 167.965 110.215C168.133 111.104 168.28 111.993 168.407 112.896C168.447 113.197 168.487 113.491 168.527 113.799C168.561 114.046 168.587 114.3 168.621 114.554C168.668 114.902 168.708 115.25 168.741 115.604C168.775 115.905 168.801 116.213 168.828 116.513C168.861 116.801 168.888 117.075 168.902 117.356C168.915 117.543 168.928 117.724 168.942 117.904C168.962 118.145 168.975 118.386 168.989 118.626C169.002 118.834 169.015 119.048 169.022 119.268C169.042 119.556 169.049 119.85 169.069 120.144C169.122 121.502 169.136 122.879 169.116 124.257V124.216Z" fill="url(#paint0_linear_12_337)"/>
<path opacity="0.37" d="M169.115 124.216C168.714 146.262 162.281 166.208 153.347 183.419C143.464 188.581 132.223 191.49 120.3 191.49C89.2516 191.49 62.8176 171.711 52.9208 144.075C50.2192 136.54 48.748 128.409 48.748 119.944C48.748 108.917 51.2423 98.4664 55.7026 89.1386C55.7895 114.146 64.1818 126.102 72.788 131.779C76.7401 135.109 81.5079 137.496 86.7506 138.606C88.2418 138.92 89.7732 139.134 91.3312 139.234C92.0267 139.281 92.7288 139.301 93.431 139.301C111.152 139.301 125.522 124.938 125.522 107.212C125.522 98.3995 121.971 90.4224 116.214 84.6185C109.741 81.3153 102.352 79.4364 94.5076 79.4364C85.6406 79.4364 77.3687 81.8369 70.3272 85.9825C70.1266 86.1631 69.926 86.3503 69.732 86.5375L68.6287 87.039C68.5016 87.1192 68.3144 87.1861 68.1405 87.2597L68.2141 87.2195L68.1338 87.2597C68.0001 87.3065 67.8663 87.36 67.766 87.4268L68.1338 87.2597L67.7393 87.4402L67.7059 87.4536C73.5972 80.319 75.8306 64.9131 75.9042 64.3782C75.9042 64.3648 75.9042 64.3649 75.9042 64.3649C75.9042 64.3649 75.9109 64.3649 75.9309 64.3649C76.2787 64.1308 76.6264 63.9035 76.9741 63.6828C85.888 57.9658 96.487 54.6426 107.862 54.6426C131.226 54.6426 151.314 68.6309 160.228 88.6839C160.335 88.8711 160.435 89.065 160.542 89.2456C160.649 89.4462 160.763 89.6468 160.863 89.8541C160.984 90.0881 161.111 90.3221 161.224 90.5561C162.227 92.4952 163.144 94.4812 163.959 96.5072C164.073 96.7813 164.18 97.0488 164.287 97.3296C164.401 97.5971 164.501 97.8713 164.601 98.1387C164.708 98.4196 164.809 98.7004 164.909 98.9812C165.09 99.4894 165.277 100.004 165.444 100.512C165.551 100.82 165.651 101.128 165.745 101.442C165.845 101.743 165.945 102.05 166.039 102.358C166.126 102.645 166.213 102.926 166.293 103.214C166.373 103.488 166.447 103.755 166.527 104.036C166.868 105.247 167.176 106.47 167.443 107.707C167.504 107.948 167.55 108.189 167.597 108.429C167.677 108.777 167.744 109.131 167.818 109.486C167.865 109.72 167.911 109.961 167.952 110.201C168.119 111.091 168.266 111.98 168.393 112.883C168.433 113.183 168.473 113.478 168.513 113.785C168.547 114.033 168.573 114.287 168.607 114.541C168.654 114.889 168.694 115.236 168.727 115.591C168.761 115.892 168.787 116.199 168.814 116.5C168.848 116.788 168.874 117.062 168.888 117.343C168.901 117.53 168.915 117.71 168.928 117.891C168.948 118.132 168.961 118.372 168.975 118.613C168.988 118.82 169.001 119.034 169.008 119.255C169.028 119.542 169.035 119.837 169.055 120.131C169.108 121.488 169.122 122.866 169.102 124.243L169.115 124.216Z" fill="url(#paint1_linear_12_337)"/>
<path opacity="0.21" d="M157.34 109.847C157.34 134.714 137.171 154.881 112.302 154.881C95.5043 154.881 80.8596 145.68 73.116 132.053C77.0012 135.243 81.6487 137.529 86.7509 138.613C88.2422 138.927 89.7735 139.141 91.3316 139.241C92.027 139.288 92.7292 139.308 93.4313 139.308C111.152 139.308 125.523 124.945 125.523 107.219C125.523 98.4062 121.972 90.4291 116.214 84.6252C109.741 81.322 102.352 79.4431 94.5079 79.4431C87.9412 79.4431 73.3635 85.0866 67.7129 87.4603C75.9112 76.3539 97.4302 64.8196 112.296 64.8196C137.165 64.8196 157.333 84.9796 157.333 109.847H157.34Z" fill="url(#paint2_linear_12_337)"/>
<path d="M125.528 107.213C125.528 98.3997 121.978 90.4226 116.22 84.6186C109.747 81.3155 102.358 79.4366 94.5138 79.4366C85.6468 79.4366 77.3749 81.837 70.3334 85.9827C70.1328 86.1632 69.9322 86.3505 69.7382 86.5377L68.6349 87.0392C68.5078 87.1194 68.3206 87.1863 68.1467 87.2598L67.7522 87.4404L67.7188 87.4537C73.61 80.3192 75.8435 64.9133 75.9171 64.3784C75.9171 64.365 75.9171 64.365 75.9171 64.365C75.9171 64.365 75.9238 64.365 75.9438 64.365C76.2916 64.131 76.6393 63.9037 76.987 63.683C78.184 63.5894 79.3877 63.5359 80.6047 63.5359C105.474 63.5359 124.077 74.2879 125.595 106.116L125.515 107.219L125.528 107.213Z" fill="#1E5EC4"/>
<path opacity="0.27" d="M57.0405 59.8782C52.1857 84.8793 35.916 105.808 13.8755 117.022C12.1703 82.5524 20.9905 53.1582 22.8696 41.878C26.0192 22.9349 6.66016 0 6.66016 0C53.1085 12.3367 58.5718 19.9795 57.0405 59.8782Z" fill="url(#paint3_linear_12_337)"/>
<g opacity="0.31">
<path d="M75.9512 64.3583C80.5853 61.7639 91.9934 63.7498 97.3029 64.6057C109.721 66.7922 119.23 76.5211 123.168 88.1959C124.218 91.2984 124.747 94.4679 125.188 97.6373C125.562 100.807 125.85 104.03 125.522 107.206C125.402 104.023 124.854 100.894 124.218 97.7978C123.041 91.6528 120.935 85.6416 117.337 80.4996C111.887 72.3821 104.251 67.4408 94.6549 65.7424C90.0141 64.8063 85.3331 63.9036 80.592 63.7431C79.0406 63.7565 77.3755 63.6562 75.9512 64.3583Z" fill="#CAEAF9"/>
</g>
<g opacity="0.31">
<path d="M73.1161 132.053C79.9435 142.264 90.6763 150.167 102.787 152.574C114.536 154.741 127.656 152.467 137.359 145.527C145.57 139.716 150.913 130.629 153.421 120.98C155.153 114.22 155.755 107.025 154.471 100.145C153.354 95.2637 151.254 90.5898 148.773 86.2569C140.729 72.0947 126.693 65.1741 110.597 65.5619C107.581 65.582 104.264 65.903 101.255 66.2841C105.308 65.3413 109.554 64.6325 113.707 64.4921C136.235 63.4624 152.358 78.3065 158.115 99.3559C160.101 108.985 158.71 119.034 155.28 128.162C152.13 136.266 146.761 143.668 139.539 148.623C128.772 155.964 114.797 158.051 102.211 155.122C89.807 152.033 79.0742 143.273 73.1094 132.047L73.1161 132.053Z" fill="#CAEAF9"/>
</g>
<g opacity="0.31">
<path d="M55.703 89.1388C51.3363 99.2622 50.0725 110.576 50.7679 121.502C51.878 138.539 59.1 155.055 70.7087 167.519C86.0154 183.64 109.721 192.379 131.849 188.862C139.104 187.866 146.212 185.626 153.347 183.419C146.727 186.856 139.813 189.892 132.424 191.758C123.142 194.151 113.252 194.325 103.856 192.393C94.4411 190.3 85.2732 186.642 77.349 181.113C58.2173 167.933 46.4815 144.764 46.8359 121.595C47.0566 110.322 49.4773 98.6604 55.6963 89.1321L55.703 89.1388Z" fill="#CAEAF9"/>
</g>
<g opacity="0.1">
<path d="M13.8691 117.022C24.107 110.409 33.3686 102.398 40.7043 92.7292C46.0272 85.4008 50.7082 77.5307 54.2389 69.1725C55.4025 66.3641 56.439 63.4956 57.0274 60.4666C57.1879 63.5758 56.546 66.6784 55.797 69.694C53.3094 78.7142 48.8692 87.1928 43.3791 94.7352C35.7826 104.631 25.5715 112.655 13.8758 117.015L13.8691 117.022Z" fill="#CAEAF9"/>
</g>
<path d="M119.016 238.176H118.836C117.03 241.144 115.258 244.02 113.553 246.754H118.809C135.212 247.563 149.964 249.162 161.472 251.382C166.722 252.391 170.574 253.394 173.389 254.29C169.249 255.601 162.857 257.159 153.12 258.61C139.111 260.696 121.825 261.986 103.643 262.327C100.453 262.388 97.2365 262.414 94 262.414C90.7635 262.414 87.7008 262.388 84.5846 262.334C66.3223 262 48.9493 260.709 34.8797 258.61C25.15 257.159 18.7505 255.601 14.6112 254.29C17.4265 253.394 21.2849 252.391 26.5276 251.382C38.036 249.162 52.7876 247.563 69.191 246.754H74.6744C73.9656 245.618 73.2434 244.454 72.5145 243.271C72.2604 242.87 72.0129 242.455 71.7588 242.047C71.3108 241.325 70.8628 240.596 70.4147 239.854C70.1539 239.433 69.8865 238.998 69.6257 238.57C69.5454 238.436 69.4652 238.303 69.3849 238.176H68.9837C29.2158 240.121 0 246.601 0 254.283C0 263.29 40.0889 270.639 90.2686 270.987C91.5124 270.993 92.7495 271 94 271C95.324 271 96.6414 270.993 97.9587 270.98C148.038 270.612 188 263.284 188 254.283C188 246.601 158.791 240.121 119.016 238.176Z" fill="url(#paint4_linear_12_337)"/>
</g>
<defs>
<linearGradient id="paint0_linear_12_337" x1="153.475" y1="195.462" x2="-17.6549" y2="24.3132" gradientUnits="userSpaceOnUse">
<stop stop-color="#276DEF"/>
<stop offset="0.14" stop-color="#3174ED"/>
<stop offset="0.38" stop-color="#4E88E9"/>
<stop offset="0.69" stop-color="#7DA7E2"/>
<stop offset="1" stop-color="#B2CCDB"/>
</linearGradient>
<linearGradient id="paint1_linear_12_337" x1="48.748" y1="123.066" x2="169.128" y2="123.066" gradientUnits="userSpaceOnUse">
<stop stop-color="#A2CBEA"/>
<stop offset="0.62" stop-color="#A3CCEB"/>
<stop offset="0.84" stop-color="#AAD3F0"/>
<stop offset="0.99" stop-color="#B6DEF8"/>
<stop offset="1" stop-color="#B7DFF9"/>
</linearGradient>
<linearGradient id="paint2_linear_12_337" x1="67.7196" y1="109.847" x2="157.34" y2="109.847" gradientUnits="userSpaceOnUse">
<stop stop-color="#C8E8FC"/>
<stop offset="1" stop-color="#B7DFF9"/>
</linearGradient>
<linearGradient id="paint3_linear_12_337" x1="50.0993" y1="86.4707" x2="-14.854" y2="21.5126" gradientUnits="userSpaceOnUse">
<stop stop-color="#90BAE0"/>
<stop offset="0.41" stop-color="#91BBE1"/>
<stop offset="0.55" stop-color="#98C2E5"/>
<stop offset="0.66" stop-color="#A4CDED"/>
<stop offset="0.74" stop-color="#B5DDF7"/>
<stop offset="0.75" stop-color="#B7DFF9"/>
</linearGradient>
<linearGradient id="paint4_linear_12_337" x1="141.746" y1="302.026" x2="46.2614" y2="206.541" gradientUnits="userSpaceOnUse">
<stop stop-color="#276DEF"/>
<stop offset="0.14" stop-color="#3174ED"/>
<stop offset="0.38" stop-color="#4E88E9"/>
<stop offset="0.69" stop-color="#7DA7E2"/>
<stop offset="1" stop-color="#B2CCDB"/>
</linearGradient>
<clipPath id="clip0_12_337">
<rect width="188" height="271" fill="white"/>
</clipPath>
</defs>
</svg>
